<svg xmlns="http://www.w3.org/2000/svg" viewBox="0 0 300 620" fill="none">
  <g stroke="#757A83" stroke-opacity="0.38" stroke-width="1.48" stroke-linecap="round" stroke-linejoin="round">
    <path d="M148 602C148 548 148 486 148 410C148 314 149 212 152 40"/>
    <path d="M152 120C178 86 212 66 248 60C241 102 219 132 186 148"/>
    <path d="M152 196C125 162 94 144 62 138C68 174 87 201 117 214"/>
    <path d="M152 272C174 244 200 228 226 222C220 252 203 275 178 288"/>
    <path d="M152 346C129 318 104 304 78 298C83 326 99 347 122 360"/>
    <path d="M152 422C172 397 194 384 216 378C211 404 197 424 176 436"/>
    <path d="M152 494C134 472 114 460 94 454C98 477 110 494 130 506"/>
    <path d="M152 560C168 542 184 532 201 528C197 548 187 562 171 572"/>
  </g>
  <g stroke="#90959D" stroke-opacity="0.2" stroke-width="0.92">
    <path d="M170 110C188 101 204 90 218 75"/>
    <path d="M132 188C119 178 108 166 99 153"/>
    <path d="M169 262C181 255 193 244 203 232"/>
    <path d="M133 336C122 327 112 317 104 306"/>
    <path d="M167 413C178 406 187 398 196 387"/>
    <path d="M135 485C126 478 118 469 111 460"/>
    <path d="M165 552C173 547 181 540 188 532"/>
  </g>
  <circle cx="148" cy="590" r="8" fill="#D8DBE0" fill-opacity="0.42" stroke="#8C9098" stroke-opacity="0.28"/>
</svg>
