<svg xmlns="http://www.w3.org/2000/svg" viewBox="0 0 300 620" fill="none">
  <g stroke="#767B84" stroke-opacity="0.38" stroke-width="1.5" stroke-linecap="round" stroke-linejoin="round">
    <path d="M150 602C150 542 150 472 150 406C150 314 151 214 154 30"/>
    <path d="M154 88C130 69 109 62 92 70C108 93 129 104 154 102"/>
    <path d="M154 132C181 113 206 106 224 116C206 139 183 149 154 146"/>
    <path d="M154 176C131 159 112 152 97 158C111 180 130 190 154 188"/>
    <path d="M154 220C178 203 199 198 214 206C199 226 178 236 154 234"/>
    <path d="M154 266C134 252 117 246 104 252C116 270 133 279 154 278"/>
    <path d="M154 312C175 297 193 292 206 299C194 318 176 327 154 325"/>
    <path d="M154 360C136 347 121 342 109 347C120 363 136 372 154 372"/>
    <path d="M154 410C173 397 188 392 200 398C190 414 174 422 154 421"/>
    <path d="M154 462C138 451 125 447 114 451C124 466 139 473 154 473"/>
    <path d="M154 512C170 502 183 499 193 503C184 517 171 524 154 523"/>
    <path d="M154 558C141 549 130 546 121 550C129 562 141 568 154 568"/>
  </g>
  <g stroke="#91959D" stroke-opacity="0.2" stroke-width="0.92">
    <path d="M132 86C139 95 146 100 154 102"/>
    <path d="M175 129C169 137 162 143 154 146"/>
    <path d="M133 174C140 182 146 186 154 188"/>
    <path d="M174 218C168 226 162 231 154 234"/>
    <path d="M134 264C140 271 146 276 154 278"/>
    <path d="M173 310C167 317 161 322 154 325"/>
    <path d="M135 358C141 364 147 369 154 372"/>
    <path d="M171 408C166 414 160 418 154 421"/>
    <path d="M136 460C141 466 147 470 154 473"/>
    <path d="M169 510C164 515 159 520 154 523"/>
  </g>
</svg>
