<svg xmlns="http://www.w3.org/2000/svg" viewBox="0 0 320 620" fill="none">
  <g stroke="#767B84" stroke-opacity="0.42" stroke-width="1.75" stroke-linecap="round" stroke-linejoin="round">
    <path d="M160 602C161 538 161 474 161 404C161 308 162 212 166 34"/>
    <path d="M166 118C132 84 96 74 66 88C90 122 125 136 166 132"/>
    <path d="M166 186C205 152 244 144 272 162C246 198 210 214 166 208"/>
    <path d="M166 266C132 238 99 230 74 244C96 274 127 288 166 284"/>
    <path d="M166 344C200 318 230 314 252 328C232 356 205 370 166 366"/>
    <path d="M166 420C136 396 111 390 90 402C108 428 133 440 166 438"/>
    <path d="M166 494C194 472 218 468 238 480C220 504 198 516 166 514"/>
    <path d="M166 560C141 542 120 538 103 548C118 570 139 579 166 578"/>
  </g>
  <g stroke="#8E939A" stroke-opacity="0.22" stroke-width="0.95">
    <path d="M124 106C138 119 152 127 166 131"/>
    <path d="M209 176C196 191 181 201 166 207"/>
    <path d="M126 257C138 267 151 275 166 282"/>
    <path d="M204 337C193 349 180 359 166 365"/>
    <path d="M128 413C140 423 151 431 166 437"/>
    <path d="M198 487C189 497 178 505 166 512"/>
    <path d="M130 553C140 561 150 568 166 576"/>
  </g>
</svg>
