<svg xmlns="http://www.w3.org/2000/svg" viewBox="0 0 260 460" fill="none">
  <g stroke="#7A7E87" stroke-opacity="0.32" stroke-width="1.35" stroke-linecap="round" stroke-linejoin="round">
    <path d="M126 438C126 370 126 300 126 34"/>
    <path d="M126 98c20-26 40-42 62-50-4 24-16 42-38 56"/>
    <path d="M126 152c-18-24-36-38-56-44 4 20 14 36 32 48"/>
    <path d="M126 206c18-20 34-30 52-36-4 18-12 30-28 40"/>
    <path d="M126 258c-16-18-30-28-46-32 3 16 12 28 24 36"/>
    <path d="M126 314c14-14 26-22 40-26-3 14-10 24-20 30"/>
    <path d="M126 364c-12-12-22-18-34-22 3 12 8 20 16 26"/>
    <circle cx="126" cy="436" r="7" fill="#D8DADF" fill-opacity="0.44" stroke="#8A8E96" stroke-opacity="0.22"/>
  </g>
</svg>
